<?xml version="1.0" encoding="utf-8"?>
<!-- Generator: Adobe Illustrator 19.0.0, SVG Export Plug-In . SVG Version: 6.00 Build 0)  -->
<svg version="1.1" id="Layer_1" xmlns="http://www.w3.org/2000/svg" xmlns:xlink="http://www.w3.org/1999/xlink" x="0px" y="0px"
	 viewBox="0 0 60 60" style="enable-background:new 0 0 60 60;" xml:space="preserve">
<style type="text/css">
	.st0{opacity:0;fill:#B4B4B4;}
	.st1{fill:#B4B4B4;}
</style>
<g id="XMLID_1487_">
	<rect id="XMLID_1565_" class="st0" width="60" height="60"/>
	<g id="XMLID_1412_">
		<g id="XMLID_1418_">
			<g id="XMLID_1419_">
				<path id="XMLID_1672_" class="st1" d="M49.2,42h-4.3V27.2h2v9.9c0,0.4,0.4,0.8,0.8,0.8c0.4,0,0.8-0.4,0.8-0.8v-9.9h0.7
					c0.4,0,0.8-0.4,0.8-0.8s-0.4-0.8-0.8-0.8h-7.8V14.1c0-0.4-0.4-0.8-0.8-0.8H19.4c-0.4,0-0.8,0.4-0.8,0.8v11.6h-7.8
					c-0.4,0-0.8,0.4-0.8,0.8c0,0.4,0.4,0.8,0.8,0.8h0.7V42h-0.7c-0.4,0-0.8,0.4-0.8,0.8v3.1c0,0.4,0.4,0.8,0.8,0.8h38.4
					c0.4,0,0.8-0.4,0.8-0.8v-3.1C50,42.4,49.6,42,49.2,42z M41.4,27.2h2V42h-2V27.2z M20.2,14.9h19.6v10.8h-1.9v-7.9
					c0-0.4-0.4-0.8-0.8-0.8H22.9c-0.4,0-0.8,0.4-0.8,0.8v7.9h-1.9V14.9z M39.8,27.2V42h-1.9V27.2H39.8z M30.8,25.6v-7.1h5.5v7.1
					H30.8z M36.3,27.2V42h-1.9V27.2H36.3z M32.7,27.2V42h-2V27.2H32.7z M23.7,25.6v-7.1h5.5v7.1H23.7z M29.2,27.2V42h-1.9V27.2H29.2
					z M25.7,27.2V42h-1.9V27.2H25.7z M20.2,27.2h1.9V42h-1.9V27.2z M16.6,27.2h2V42h-2V27.2z M13.1,27.2H15V42h-1.9V27.2z
					 M48.4,45.1H11.6v-1.5h36.8L48.4,45.1L48.4,45.1z"/>
			</g>
		</g>
		<g id="XMLID_1420_">
			<g id="XMLID_1423_">
				<path id="XMLID_1489_" class="st1" d="M47.7,38.8c-0.4,0-0.8,0.4-0.8,0.8v0.6c0,0.4,0.4,0.8,0.8,0.8c0.4,0,0.8-0.4,0.8-0.8v-0.6
					C48.5,39.2,48.2,38.8,47.7,38.8z"/>
			</g>
		</g>
	</g>
</g>
</svg>
