<?xml version="1.0" encoding="utf-8"?>
<!-- Generator: Adobe Illustrator 19.0.0, SVG Export Plug-In . SVG Version: 6.00 Build 0)  -->
<svg version="1.1" id="Layer_1" xmlns="http://www.w3.org/2000/svg" xmlns:xlink="http://www.w3.org/1999/xlink" x="0px" y="0px"
	 viewBox="0 0 60 60" style="enable-background:new 0 0 60 60;" xml:space="preserve">
<style type="text/css">
	.st0{opacity:0;fill:#B4B4B4;}
	.st1{fill:#B4B4B4;}
</style>
<g id="XMLID_1591_">
	<rect id="XMLID_1630_" class="st0" width="60" height="60"/>
	<path id="XMLID_587_" class="st1" d="M48.4,33.6h-1.3V19.6c0-3.3-2.6-5.9-5.9-5.9c-3,0-5.5,2.3-5.9,5.2h-4c-0.8,0-1.5,0.7-1.5,1.5
		c0,0.8,0.7,1.5,1.5,1.5h9.5c0.8,0,1.5-0.7,1.5-1.5c0-0.8-0.7-1.5-1.5-1.5H37c0.3-2.1,2.1-3.6,4.2-3.6c2.4,0,4.3,1.9,4.3,4.3v13.9
		H11.6c-0.9,0-1.6,0.7-1.6,1.6s0.7,1.6,1.6,1.6H12c0.2,1.5,0.7,5.5,1,7.2c0.2,1.2,1,2.2,2.2,2.2h29.5c1.2,0,2-1,2.2-2.2
		c0.3-1.7,0.8-5.7,1-7.2h0.4c0.9,0,1.6-0.7,1.6-1.6C50,34.3,49.3,33.6,48.4,33.6z"/>
</g>
</svg>
