<?xml version="1.0" encoding="utf-8"?>
<!-- Generator: Adobe Illustrator 19.0.0, SVG Export Plug-In . SVG Version: 6.00 Build 0)  -->
<svg version="1.1" id="Layer_1" xmlns="http://www.w3.org/2000/svg" xmlns:xlink="http://www.w3.org/1999/xlink" x="0px" y="0px"
	 viewBox="0 0 60 60" style="enable-background:new 0 0 60 60;" xml:space="preserve">
<style type="text/css">
	.st0{opacity:0;fill:#B4B4B4;}
	.st1{fill:#B4B4B4;}
</style>
<g id="XMLID_27_">
	<rect id="XMLID_33_" class="st0" width="60" height="60"/>
	<g id="XMLID_28_">
		<path id="XMLID_32_" class="st1" d="M14.6,28.1c0-2.1,1.7-3.8,3.8-3.8h8.5c1.3,0,2.5,0.7,3.2,1.7c0.7-1,1.8-1.7,3.2-1.7h8.5
			c2.1,0,3.8,1.7,3.8,3.8v0.2h0.9v-3.7c0-2.3-1.9-4.2-4.2-4.2H17.8c-2.3,0-4.2,1.9-4.2,4.2v3.7h0.9L14.6,28.1L14.6,28.1z"/>
		<path id="XMLID_31_" class="st1" d="M48.4,30.1H11.6c-0.9,0-1.6,0.7-1.6,1.6v9.2c0,0.9,0.7,1.6,1.6,1.6h0.7l-0.8,2.2
			c-0.2,0.5,0.1,1,0.5,1.1c0.1,0,0.2,0.1,0.3,0.1c0.4,0,0.7-0.2,0.8-0.6l1-2.8h31.7l1,2.8c0.1,0.4,0.5,0.6,0.8,0.6
			c0.1,0,0.2,0,0.3-0.1c0.5-0.2,0.7-0.7,0.5-1.1l-0.8-2.2h0.7c0.9,0,1.6-0.7,1.6-1.6v-9.2C50,30.8,49.3,30.1,48.4,30.1z"/>
		<path id="XMLID_30_" class="st1" d="M33.2,26.1c-1.1,0-2,0.9-2,2v0.2h12.5v-0.2c0-1.1-0.9-2-2-2H33.2z"/>
		<path id="XMLID_29_" class="st1" d="M18.3,26.1c-1.1,0-2,0.9-2,2v0.2h12.5v-0.2c0-1.1-0.9-2-2-2H18.3z"/>
	</g>
</g>
</svg>
