<?xml version="1.0" encoding="utf-8"?>
<!-- Generator: Adobe Illustrator 19.0.0, SVG Export Plug-In . SVG Version: 6.00 Build 0)  -->
<svg version="1.1" id="Layer_1" xmlns="http://www.w3.org/2000/svg" xmlns:xlink="http://www.w3.org/1999/xlink" x="0px" y="0px"
	 viewBox="0 0 60 60" style="enable-background:new 0 0 60 60;" xml:space="preserve">
<style type="text/css">
	.st0{opacity:0;fill:#B4B4B4;}
	.st1{fill:#B4B4B4;}
</style>
<g id="XMLID_1599_">
	<rect id="XMLID_1627_" class="st0" width="60" height="60"/>
	<g id="XMLID_1450_">
		<g id="XMLID_1414_">
			<rect id="XMLID_1640_" x="25.6" y="38.2" class="st1" width="8.9" height="7.5"/>
			<g id="XMLID_1416_">
				<path id="XMLID_1639_" class="st1" d="M48.5,29.8h-8.3v19.5h8.3c0.8,0,1.5-0.7,1.5-1.5V31.4C50,30.5,49.3,29.8,48.5,29.8z"/>
				<path id="XMLID_1638_" class="st1" d="M11.5,49.3h8.6V29.8h-8.6c-0.8,0-1.5,0.7-1.5,1.5v16.4C10,48.6,10.7,49.3,11.5,49.3z"/>
			</g>
			<path id="XMLID_1794_" class="st1" d="M21.8,29.8v19.5h16.6V29.8H21.8z M34.7,32.6c0.5,0,0.8,0.4,0.8,0.8s-0.4,0.8-0.8,0.8
				s-0.8-0.4-0.8-0.8S34.2,32.6,34.7,32.6z M31.6,32.6c0.5,0,0.8,0.4,0.8,0.8s-0.4,0.8-0.8,0.8c-0.5,0-0.8-0.4-0.8-0.8
				C30.7,33,31.1,32.6,31.6,32.6z M28.4,32.6c0.5,0,0.8,0.4,0.8,0.8s-0.4,0.8-0.8,0.8c-0.5,0-0.8-0.4-0.8-0.8
				C27.6,33,28,32.6,28.4,32.6z M25.3,32.6c0.5,0,0.8,0.4,0.8,0.8s-0.4,0.8-0.8,0.8c-0.5,0-0.8-0.4-0.8-0.8S24.9,32.6,25.3,32.6z
				 M36.1,46.6c0,0.5-0.4,0.9-0.9,0.9H24.7c-0.5,0-0.9-0.4-0.9-0.9v-9.2c0-0.5,0.4-0.9,0.9-0.9h10.6c0.5,0,0.9,0.4,0.9,0.9V46.6z"/>
		</g>
		<path id="XMLID_1600_" class="st1" d="M33,19.8c-0.5,0-1-0.4-1-1v-7.2c0-0.5-0.4-1-1-1h-2.2c-0.5,0-1,0.4-1,1v7.2c0,0.5-0.4,1-1,1
			h-3.7c-0.5,0-1,0.4-1,1v1.8c0,0.5,0.4,1,1,1h13.3c0.5,0,1-0.4,1-1v-1.8c0-0.5-0.4-1-1-1H33z"/>
	</g>
</g>
</svg>
