<?xml version="1.0" encoding="utf-8"?>
<!-- Generator: Adobe Illustrator 19.0.0, SVG Export Plug-In . SVG Version: 6.00 Build 0)  -->
<svg version="1.1" id="Layer_1" xmlns="http://www.w3.org/2000/svg" xmlns:xlink="http://www.w3.org/1999/xlink" x="0px" y="0px"
	 viewBox="0 0 60 60" style="enable-background:new 0 0 60 60;" xml:space="preserve">
<style type="text/css">
	.st0{opacity:0;fill:#B4B4B4;}
	.st1{fill:#B4B4B4;}
</style>
<g id="XMLID_1432_">
	<rect id="XMLID_1437_" class="st0" width="60" height="60"/>
	<g id="XMLID_1662_">
		<path id="XMLID_1448_" class="st1" d="M16.6,30.9H22c-1.1-2.1-2.9-4.8-6-7.7c-0.6-0.6-1.4-0.9-2.2-0.9c-0.9,0-1.7,0.3-2.5,1
			c-2.5,2-0.8,4.6-0.2,5.3c0.8,1,1.6,2.3,2.3,3.9C14.1,31.6,15.3,30.9,16.6,30.9z"/>
		<path id="XMLID_1446_" class="st1" d="M48.7,23.4c-0.8-0.7-1.6-1-2.5-1c-0.8,0-1.6,0.3-2.2,0.9c-3.1,2.9-4.9,5.6-6,7.7h5.4
			c1.3,0,2.5,0.6,3.2,1.6c0.7-1.6,1.5-2.9,2.3-3.9C49.5,27.9,51.2,25.4,48.7,23.4z"/>
		<path id="XMLID_1443_" class="st1" d="M45.8,40.4V35c0-1.3-1.1-2.4-2.4-2.4H16.6c-1.3,0-2.4,1.1-2.4,2.4v5.4
			c0,1.3,1.1,2.4,2.4,2.4h26.8C44.7,42.8,45.8,41.7,45.8,40.4z"/>
		<polygon id="XMLID_1441_" class="st1" points="40.4,44.5 40.8,47.6 42.8,47.6 43.2,44.5 		"/>
		<polygon id="XMLID_1434_" class="st1" points="16.8,44.5 17.2,47.6 19.2,47.6 19.6,44.5 		"/>
		<path id="XMLID_1425_" class="st1" d="M36.1,30.9c1.2-2.5,3.2-5.6,6.7-8.9c0.5-0.5,1.1-0.8,1.7-1c-2.3-5-7.9-8.6-14.5-8.6
			S17.7,15.9,15.5,21c0.6,0.2,1.2,0.6,1.7,1c3.6,3.3,5.6,6.4,6.7,8.9L36.1,30.9L36.1,30.9z"/>
	</g>
</g>
</svg>
